# xmcd
# 
# Track frame offsets:
#     150
#     10528
#     22430
#     32970
#     45008
#     57590
#     67341
#     79864
#     92909
#     103849
#     114425
#     126936
#     140721
#     150227
#     162415
#     174858
#     183466
#     193918
#     206128
#     217525
#     228934
#     239060
#     251770
#     262169
#     275121
# 
# Disc length: 3782
# 
# Revision: 2
# Processed by: cddbd v1.5.2PL0 Copyright (c) Steve Scherf et al.
# Submitted via: fre:ac v1.0.17
# 
DISCID=760ec419
DTITLE=Various Artist - The Songs of Leiber and Stoller [CD 1)
DYEAR=2013
DGENRE=Rock and Roll
TTITLE0=Elvis Presley - Hound Dog
TTITLE1=Dion - Ruby Baby
TTITLE2=Gene Pitney - Take It Like A Man
TTITLE3=Baby Jane and The Rockabyes - My Boy John
TTITLE4=Johnny Burnette - Love Me
TTITLE5=Ruth Brown - Lucky Lips
TTITLE6=Jay and The Americans - It's My Turn To Cry
TTITLE7=Ben E. King - Spanish Harlem
TTITLE8=Wilbert Harrison - Kansas City
TTITLE9=Richie Barrett - Some Other Guy
TTITLE10=Damita Jo - I'll Be There
TTITLE11=Screamin' Jay Hawkins - Alligator Wine
TTITLE12=The Leiber-Stoller Orchestra - Cafe Espresso
TTITLE13=Chuck Jackson - I Keep Forgettin'
TTITLE14=The Robins - Smokey Joe's Café
TTITLE15=Elvis Presley - Just Tell Her Jim Said Hello
TTITLE16=LaVern Baker - Don Juan
TTITLE17=Tippie and The Clovers - The Bossa Nova (My Heart Said)
TTITLE18=Johnny Mathis - All Is Well
TTITLE19=The Drifters - Fools Fall In Love
TTITLE20=Sammy Turner - Falling
TTITLE21=Little Esther - Hollerin' and Screamin'
TTITLE22=The Coasters - Charlie Brown
TTITLE23=Marv Johnson - Keep Tellin' Yourself
TTITLE24=The Clovers - Love Potion No. 9
EXTD=
EXTT0=
EXTT1=
EXTT2=
EXTT3=
EXTT4=
EXTT5=
EXTT6=
EXTT7=
EXTT8=
EXTT9=
EXTT10=
EXTT11=
EXTT12=
EXTT13=
EXTT14=
EXTT15=
EXTT16=
EXTT17=
EXTT18=
EXTT19=
EXTT20=
EXTT21=
EXTT22=
EXTT23=
EXTT24=
PLAYORDER=
